<svg xmlns="http://www.w3.org/2000/svg" xmlns:xlink="http://www.w3.org/1999/xlink">
  <symbol xmlns="http://www.w3.org/2000/svg" id="safe" viewBox="0 0 47.228 60.12">
    <path d="M179.572,56.736l1.207.909c4.867,3.666,11.8,6.17,20.619,7.4l1.83.255v27.97c0,4.512-2.051,8.773-6.014,12.7q-5.688,5.637-16.693,10.49l-.9.4-.887-.434C163.777,109.114,156,101.442,156,93.267v-27.9l1.971-.141c6.634-.474,13.476-3.037,20.347-7.653Zm-.122,5.175-.107.069a46.571,46.571,0,0,1-19.064,7.287l-.034,0v24c0,5.871,6.321,12.282,19.142,18.743l.32.16.3-.136c12.6-5.784,18.849-12.1,18.977-18.565l0-.2V68.97l-.134-.022c-7.836-1.291-14.3-3.611-19.263-6.945l-.136-.092ZM192.311,77.9a2.229,2.229,0,0,1,0,3.152L177.48,95.9a2.228,2.228,0,0,1-3.149,0l-7.45-7.419a2.228,2.228,0,1,1,3.145-3.158L175.9,91.18,189.159,77.9a2.228,2.228,0,0,1,3.151,0Z" transform="translate(-156 -56.736)" />
  </symbol>
  <symbol xmlns="http://www.w3.org/2000/svg" id="permissionless" viewBox="0 0 43.084 57.105">
    <g transform="translate(-174 -64)">
      <path d="M208.161,488.122H182.923A8.933,8.933,0,0,1,174,479.2V459.824A3.827,3.827,0,0,1,177.824,456H213.26a3.827,3.827,0,0,1,3.824,3.824V479.2A8.933,8.933,0,0,1,208.161,488.122Zm-30.337-28.3h0V479.2a5.105,5.105,0,0,0,5.1,5.1h25.239a5.105,5.105,0,0,0,5.1-5.1V459.824Z" transform="translate(0 -367.016)" />
      <path d="M292.122,92.808H260V80.061a16.061,16.061,0,0,1,32.122,0Zm-28.3-3.824H288.3V80.061a12.237,12.237,0,0,0-24.474,0Zm12.237,23.327a7.266,7.266,0,1,1,7.266-7.266A7.271,7.271,0,0,1,276.061,112.31Zm0-10.707a3.442,3.442,0,1,0,3.442,3.442A3.444,3.444,0,0,0,276.061,101.6Z" transform="translate(-80.519)" />
    </g>
  </symbol>
  <symbol xmlns="http://www.w3.org/2000/svg" id="threshold" viewBox="0 0 55.359 56">
    <path d="M106.621,124.518l4.105,6.157h-1.847a10.264,10.264,0,0,0,18.269,4.1h4.775a14.37,14.37,0,0,1-27.21-4.1h-2.2l4.105-6.157ZM121.054,87a4.1,4.1,0,0,1,4.105,4.1v18.727H120.8V91.361H84.362v45.663h15.844v4.361h-16.1a4.1,4.1,0,0,1-4.105-4.1V91.1A4.1,4.1,0,0,1,84.105,87Zm.029,27.407a14.367,14.367,0,0,1,12.079,12.164h2.2l-4.105,6.157-4.105-6.157H129a10.264,10.264,0,0,0-18.269-4.1h-4.775A14.369,14.369,0,0,1,121.083,114.407Zm-18.049-6.725a2.052,2.052,0,0,1,0,4.1H91.743a2.052,2.052,0,1,1,0-4.1Zm10.328-9.3a2.052,2.052,0,0,1,0,4.1H91.807a2.052,2.052,0,1,1,0-4.1h21.554Z" transform="translate(-80 -87)" />
  </symbol>
  <symbol xmlns="http://www.w3.org/2000/svg" id="decentralized" viewBox="0 0 67.07 61.976">
    <g transform="translate(-926.965 -2824.512)">
      <g transform="translate(926.965 2824.512)">
        <path d="M.008,4.275A4.518,4.518,0,0,0,4.264,9.032h.268A4.492,4.492,0,0,0,9.039,4.507,4.519,4.519,0,0,0,.008,4.275Z" transform="translate(18.379 26.49)" />
        <path d="M1.54,0A1.46,1.46,0,1,0,2.917,1.541,1.449,1.449,0,0,0,1.54,0Z" transform="translate(0 29.599)" />
        <path d="M2.121,2.765A1.475,1.475,0,0,0,2.765.8,1.475,1.475,0,0,0,.8.154,1.454,1.454,0,0,0,.154,2.1a1.446,1.446,0,0,0,1.967.662Z" transform="translate(15.979 1.78)" />
        <path d="M3.26,4.262a2.252,2.252,0,1,0-3.023-1A2.256,2.256,0,0,0,3.26,4.262Z" transform="translate(19.419 8.278)" />
        <path d="M.845,3.412A1.86,1.86,0,0,0,2.884.3,1.871,1.871,0,0,0,.308.837h0A1.851,1.851,0,0,0,.845,3.412Z" transform="translate(6.418 14.618)" />
        <path d="M2.382,0A2.257,2.257,0,1,0,4.511,2.382h0A2.258,2.258,0,0,0,2.382,0Z" transform="translate(7.617 28.793)" />
        <path d="M1.023.2a1.864,1.864,0,1,0,2.5.823h0A1.871,1.871,0,0,0,1.023.2Z" transform="translate(6.49 43.745)" />
        <path d="M1.205,4.871A2.633,2.633,0,0,0,4.871,4.1,2.633,2.633,0,0,0,4.1.436a2.649,2.649,0,0,0-2.9,4.435Z" transform="translate(15.072 19.258)" />
        <path d="M1.025,4.142A2.259,2.259,0,0,0,3.511.369a2.269,2.269,0,0,0-3.13.644h0a2.235,2.235,0,0,0,.644,3.13Z" transform="translate(43.062 8.219)" />
        <path d="M.657,2.691A1.461,1.461,0,1,0,.228.652,1.506,1.506,0,0,0,.657,2.691Z" transform="translate(48.045 1.711)" />
        <path d="M4.765.008a4.514,4.514,0,1,0-.5,9.014h.25A4.511,4.511,0,0,0,4.765.008Z" transform="translate(39.662 26.447)" />
        <path d="M.487,6.568A4.515,4.515,0,0,0,9.036,4.529,4.555,4.555,0,0,0,8.553,2.49,4.519,4.519,0,1,0,.487,6.568Z" transform="translate(23.677 17.239)" />
        <path d="M2.714,3.512A1.86,1.86,0,1,0,.192,2.69a1.891,1.891,0,0,0,2.522.823Z" transform="translate(56.844 14.518)" />
        <path d="M1.464.276a2.651,2.651,0,1,0,3.559,1.18A2.652,2.652,0,0,0,1.464.276Z" transform="translate(46.647 19.185)" />
        <path d="M1.755,3.723A1.885,1.885,0,0,0,3.723,1.97,1.864,1.864,0,0,0,0,1.737,1.89,1.89,0,0,0,1.755,3.723Z" transform="translate(31.601 0)" />
        <path d="M2.507,5.3a2.633,2.633,0,0,0,2.79-2.5A2.633,2.633,0,0,0,2.793,0,2.651,2.651,0,1,0,2.507,5.3Z" transform="translate(30.831 10.103)" />
        <path d="M3.843,5.023A2.651,2.651,0,1,0,.284,3.843,2.652,2.652,0,0,0,3.843,5.023Z" transform="translate(15.116 37.491)" />
        <path d="M.736,2.039A4.515,4.515,0,1,0,4.51,0,4.5,4.5,0,0,0,.736,2.039Z" transform="translate(34.319 17.243)" />
        <path d="M8.553,2.49a4.515,4.515,0,1,0-2,6.063h0A4.494,4.494,0,0,0,8.571,2.526C8.571,2.508,8.571,2.508,8.553,2.49Z" transform="translate(34.354 35.678)" />
        <path d="M4.1.436a2.633,2.633,0,0,0-3.666.769,2.633,2.633,0,0,0,.769,3.666A2.649,2.649,0,1,0,4.1.436Z" transform="translate(46.692 37.411)" />
        <path d="M4.511,2.382A2.257,2.257,0,1,0,2.132,4.511h0A2.27,2.27,0,0,0,4.511,2.382Z" transform="translate(54.939 28.686)" />
        <path d="M1.54,0A1.46,1.46,0,1,0,2.917,1.541,1.472,1.472,0,0,0,1.54,0Z" transform="translate(64.152 29.455)" />
        <path d="M2.876.3A1.86,1.86,0,1,0,.837,3.412a1.871,1.871,0,0,0,2.575-.537A1.851,1.851,0,0,0,2.876.3Z" transform="translate(56.932 43.645)" />
        <path d="M2.262.241A1.458,1.458,0,1,0,.652,2.673a1.464,1.464,0,0,0,2.021-.411h0A1.436,1.436,0,0,0,2.262.241Z" transform="translate(16.089 57.332)" />
        <path d="M.8.161A1.475,1.475,0,0,0,.154,2.129a1.475,1.475,0,0,0,1.967.644A1.454,1.454,0,0,0,2.765.823,1.446,1.446,0,0,0,.8.161Z" transform="translate(48.172 57.269)" />
        <path d="M8.309,7A4.521,4.521,0,1,0,2.05,8.3a4.482,4.482,0,0,0,2.468.733A4.451,4.451,0,0,0,8.309,7Z" transform="translate(23.706 35.697)" />
        <path d="M3.5.369A2.259,2.259,0,0,0,1.012,4.142,2.269,2.269,0,0,0,4.142,3.5h0A2.238,2.238,0,0,0,3.5.369Z" transform="translate(19.485 49.246)" />
        <path d="M1.972,0A1.885,1.885,0,0,0,0,1.755a1.864,1.864,0,0,0,3.72.233A1.89,1.89,0,0,0,1.972,0Z" transform="translate(31.546 58.25)" />
        <path d="M2.795,0A2.633,2.633,0,0,0,0,2.509,2.651,2.651,0,1,0,2.795,0Z" transform="translate(30.74 46.569)" />
        <path d="M1.233.246a2.26,2.26,0,1,0,3.058,1,2.282,2.282,0,0,0-3.058-1Z" transform="translate(43.158 49.19)" />
      </g>
    </g>
  </symbol>
  <symbol xmlns="http://www.w3.org/2000/svg" id="fast" viewBox="0 0 53 53">
    <path d="M163.564,114.948l.051.051.051.05a9.053,9.053,0,0,1,2.323,6.829,23.834,23.834,0,0,1-2.143,8.5,51.152,51.152,0,0,1-4.922,8.737,51.154,51.154,0,0,1,4.922,8.737,23.835,23.835,0,0,1,2.143,8.5,8.311,8.311,0,0,1-9.253,9.253,23.834,23.834,0,0,1-8.5-2.143,51.145,51.145,0,0,1-8.737-4.922,51.155,51.155,0,0,1-8.737,4.922,23.835,23.835,0,0,1-8.5,2.143A8.311,8.311,0,0,1,113,156.361a23.834,23.834,0,0,1,2.143-8.5,51.153,51.153,0,0,1,4.922-8.737,51.154,51.154,0,0,1-4.922-8.737,23.835,23.835,0,0,1-2.143-8.5,9.053,9.053,0,0,1,2.323-6.829l.05-.05.051-.051a9.053,9.053,0,0,1,6.829-2.323,23.835,23.835,0,0,1,8.5,2.143,51.153,51.153,0,0,1,8.737,4.922,51.149,51.149,0,0,1,8.737-4.922,23.836,23.836,0,0,1,8.5-2.143,9.053,9.053,0,0,1,6.829,2.323ZM122.788,142.8l-.043.066a44.8,44.8,0,0,0-3.638,6.689c-2.217,5.172-2.323,9-.684,10.634s5.462,1.532,10.634-.684a44.893,44.893,0,0,0,6.755-3.681A81.211,81.211,0,0,1,122.788,142.8Zm33.41,0-.111.14a81.234,81.234,0,0,1-12.912,12.883,44.9,44.9,0,0,0,6.755,3.681c5.172,2.217,9,2.323,10.634.684s1.532-5.462-.684-10.634A44.905,44.905,0,0,0,156.2,142.8Zm-16.7-17.783-.087.066a76.4,76.4,0,0,0-14.015,14.035,76.377,76.377,0,0,0,14.1,14.1,76.376,76.376,0,0,0,14.1-14.1,76.365,76.365,0,0,0-14.1-14.1Zm-.033,10.928a3.169,3.169,0,0,1,3.18,3.1v.1a3.18,3.18,0,0,1-6.36.052v-.1A3.168,3.168,0,0,1,139.46,135.945ZM118.472,118l-.05.049-.049.05c-1.588,1.666-1.461,5.464.733,10.585a44.9,44.9,0,0,0,3.681,6.755,81.206,81.206,0,0,1,13.023-13.024,44.9,44.9,0,0,0-6.755-3.681c-5.12-2.195-8.919-2.321-10.585-.733Zm31.457.733a44.89,44.89,0,0,0-6.755,3.681A81.2,81.2,0,0,1,156.2,135.438a44.9,44.9,0,0,0,3.681-6.755c2.194-5.12,2.321-8.919.733-10.585l-.049-.05-.05-.049C158.848,116.412,155.05,116.538,149.929,118.733Z" transform="translate(-112.993 -112.619)" />
  </symbol>
  <symbol xmlns="http://www.w3.org/2000/svg" id="governance" viewBox="0 0 54.832 54.832">
    <path d="M158.987,145.131l.027.026,3.339,3.339a12.6,12.6,0,0,1,.146,17.674l-.146.149-9.991,9.991a15.443,15.443,0,0,1-22.019-21.657l.179-.182,1.33-1.331a2.273,2.273,0,0,1,3.24,3.187l-.026.027-1.33,1.331a10.9,10.9,0,0,0,15.283,15.538l.128-.126,9.99-9.99a8.058,8.058,0,0,0,.093-11.3l-.093-.095-3.339-3.339a2.273,2.273,0,0,1,3.16-3.266l.027.026Zm17.322-14.608a15.443,15.443,0,0,1,.179,21.657l-.179.182-1.33,1.33a2.273,2.273,0,0,1-3.24-3.188l.026-.027,1.33-1.33a10.9,10.9,0,0,0-15.283-15.538l-.129.126-9.99,9.99a8.057,8.057,0,0,0-.093,11.3l.093.1,3.339,3.339a2.273,2.273,0,0,1-3.187,3.24l-.027-.026-3.339-3.339a12.6,12.6,0,0,1-.146-17.674l.146-.149,9.99-9.99a15.443,15.443,0,0,1,21.839,0Z" transform="translate(-126 -126)" />
  </symbol>

</svg>